# xmcd
#
# Track frame offsets:
#	150
#	12544
#	25189
#	40528
#	53262
#	59246
#	76815
#	88826
#	105424
#	121166
#	133649
#
# Disc length: 2009 seconds
#
# Revision: 1
# Processed by: cddbd v1.5.2PL0 Copyright (c) Steve Scherf et al.
# Submitted via: audiograbber 1.83.01
#
DISCID=8107d70b
DTITLE=Paura - History Bleeds
DYEAR=2010
DGENRE=Hardcore
TTITLE0=No Hard Feelings!? Fuck you!
TTITLE1=Scars of life
TTITLE2=Unleashing hell
TTITLE3=Land of heroes and villains
TTITLE4=Burning the flags
TTITLE5=Not over yet
TTITLE6=For each dead one
TTITLE7=This is emergency
TTITLE8=Where eagles die
TTITLE9=Unhuman mankind
TTITLE10=History bleeds
EXTD=
EXTT0=
EXTT1=
EXTT2=
EXTT3=
EXTT4=
EXTT5=
EXTT6=
EXTT7=
EXTT8=
EXTT9=
EXTT10=
PLAYORDER=
